<svg xmlns="http://www.w3.org/2000/svg" width="1000" height="600" style="background-color:white;">
<text x="500.0" y="30" font-family="Arial" font-size="24" text-anchor="middle" font-weight="bold">Discipline Gap: Avg Penalty Yards (AFC vs NFC)</text>
<text x="820" y="52" font-family="Arial" font-size="12" fill="#D50A0A" font-weight="bold">AFC (Red)</text>
<text x="900" y="52" font-family="Arial" font-size="12" fill="#013369" font-weight="bold">NFC (Blue)</text>
<line x1="60" y1="540.0" x2="940" y2="540.0" stroke="#eee" stroke-width="1" />
<text x="50" y="545.0" font-family="Arial" font-size="12" text-anchor="end">0 yds</text>
<line x1="60" y1="480.0" x2="940" y2="480.0" stroke="#eee" stroke-width="1" />
<text x="50" y="485.0" font-family="Arial" font-size="12" text-anchor="end">100 yds</text>
<line x1="60" y1="420.0" x2="940" y2="420.0" stroke="#eee" stroke-width="1" />
<text x="50" y="425.0" font-family="Arial" font-size="12" text-anchor="end">200 yds</text>
<line x1="60" y1="360.0" x2="940" y2="360.0" stroke="#eee" stroke-width="1" />
<text x="50" y="365.0" font-family="Arial" font-size="12" text-anchor="end">300 yds</text>
<line x1="60" y1="300.0" x2="940" y2="300.0" stroke="#eee" stroke-width="1" />
<text x="50" y="305.0" font-family="Arial" font-size="12" text-anchor="end">400 yds</text>
<line x1="60" y1="240.0" x2="940" y2="240.0" stroke="#eee" stroke-width="1" />
<text x="50" y="245.0" font-family="Arial" font-size="12" text-anchor="end">500 yds</text>
<line x1="60" y1="180.0" x2="940" y2="180.0" stroke="#eee" stroke-width="1" />
<text x="50" y="185.0" font-family="Arial" font-size="12" text-anchor="end">600 yds</text>
<line x1="60" y1="120.0" x2="940" y2="120.0" stroke="#eee" stroke-width="1" />
<text x="50" y="125.0" font-family="Arial" font-size="12" text-anchor="end">700 yds</text>
<line x1="60" y1="60.0" x2="940" y2="60.0" stroke="#eee" stroke-width="1" />
<text x="50" y="65.0" font-family="Arial" font-size="12" text-anchor="end">800 yds</text>
<text x="60.0" y="560" font-family="Arial" font-size="12" text-anchor="middle">2011</text>
<text x="122.85714285714286" y="560" font-family="Arial" font-size="12" text-anchor="middle">2012</text>
<text x="185.71428571428572" y="560" font-family="Arial" font-size="12" text-anchor="middle">2013</text>
<text x="248.57142857142856" y="560" font-family="Arial" font-size="12" text-anchor="middle">2014</text>
<text x="311.42857142857144" y="560" font-family="Arial" font-size="12" text-anchor="middle">2015</text>
<text x="374.2857142857143" y="560" font-family="Arial" font-size="12" text-anchor="middle">2016</text>
<text x="437.1428571428571" y="560" font-family="Arial" font-size="12" text-anchor="middle">2017</text>
<text x="500.0" y="560" font-family="Arial" font-size="12" text-anchor="middle">2018</text>
<text x="562.8571428571429" y="560" font-family="Arial" font-size="12" text-anchor="middle">2019</text>
<text x="625.7142857142857" y="560" font-family="Arial" font-size="12" text-anchor="middle">2020</text>
<text x="688.5714285714286" y="560" font-family="Arial" font-size="12" text-anchor="middle">2021</text>
<text x="751.4285714285714" y="560" font-family="Arial" font-size="12" text-anchor="middle">2022</text>
<text x="814.2857142857142" y="560" font-family="Arial" font-size="12" text-anchor="middle">2023</text>
<text x="877.1428571428571" y="560" font-family="Arial" font-size="12" text-anchor="middle">2024</text>
<text x="940.0" y="560" font-family="Arial" font-size="12" text-anchor="middle">2025</text>
<circle cx="60.0" cy="339.9428571428571" r="4" fill="#D50A0A" />
<circle cx="122.85714285714286" cy="291.6428571428571" r="4" fill="#D50A0A" />
<circle cx="185.71428571428572" cy="301.15714285714284" r="4" fill="#D50A0A" />
<circle cx="248.57142857142856" cy="255.94285714285712" r="4" fill="#D50A0A" />
<circle cx="311.42857142857144" cy="217.45714285714286" r="4" fill="#D50A0A" />
<circle cx="374.2857142857143" cy="225.68571428571425" r="4" fill="#D50A0A" />
<circle cx="437.1428571428571" cy="236.44" r="4" fill="#D50A0A" />
<circle cx="500.0" cy="238.92000000000002" r="4" fill="#D50A0A" />
<circle cx="562.8571428571429" cy="272.24" r="4" fill="#D50A0A" />
<circle cx="625.7142857142857" cy="336.825" r="4" fill="#D50A0A" />
<circle cx="688.5714285714286" cy="279.03749999999997" r="4" fill="#D50A0A" />
<circle cx="751.4285714285714" cy="326.5875" r="4" fill="#D50A0A" />
<circle cx="814.2857142857142" cy="150.41250000000002" r="4" fill="#D50A0A" />
<circle cx="877.1428571428571" cy="97.16249999999997" r="4" fill="#D50A0A" />
<circle cx="940.0" cy="104.84999999999997" r="4" fill="#D50A0A" />
<polyline points="60.0,339.9428571428571 122.85714285714286,291.6428571428571 185.71428571428572,301.15714285714284 248.57142857142856,255.94285714285712 311.42857142857144,217.45714285714286 374.2857142857143,225.68571428571425 437.1428571428571,236.44 500.0,238.92000000000002 562.8571428571429,272.24 625.7142857142857,336.825 688.5714285714286,279.03749999999997 751.4285714285714,326.5875 814.2857142857142,150.41250000000002 877.1428571428571,97.16249999999997 940.0,104.84999999999997" fill="none" stroke="#D50A0A" stroke-width="4" />
<text x="950.0" y="104.84999999999997" font-family="Arial" font-size="14" font-weight="bold" fill="#D50A0A">AFC (Avg)</text>
<circle cx="60.0" cy="251.8" r="4" fill="#013369" />
<circle cx="122.85714285714286" cy="293.2" r="4" fill="#013369" />
<circle cx="185.71428571428572" cy="254.40000000000003" r="4" fill="#013369" />
<circle cx="248.57142857142856" cy="258.12" r="4" fill="#013369" />
<circle cx="311.42857142857144" cy="249.40000000000003" r="4" fill="#013369" />
<circle cx="374.2857142857143" cy="240.3" r="4" fill="#013369" />
<circle cx="437.1428571428571" cy="240.03750000000002" r="4" fill="#013369" />
<circle cx="500.0" cy="267.375" r="4" fill="#013369" />
<circle cx="562.8571428571429" cy="266.325" r="4" fill="#013369" />
<circle cx="625.7142857142857" cy="339.0" r="4" fill="#013369" />
<circle cx="688.5714285714286" cy="308.4" r="4" fill="#013369" />
<circle cx="751.4285714285714" cy="327.6" r="4" fill="#013369" />
<circle cx="814.2857142857142" cy="127.42500000000001" r="4" fill="#013369" />
<circle cx="877.1428571428571" cy="87.89999999999998" r="4" fill="#013369" />
<circle cx="940.0" cy="112.57499999999999" r="4" fill="#013369" />
<polyline points="60.0,251.8 122.85714285714286,293.2 185.71428571428572,254.40000000000003 248.57142857142856,258.12 311.42857142857144,249.40000000000003 374.2857142857143,240.3 437.1428571428571,240.03750000000002 500.0,267.375 562.8571428571429,266.325 625.7142857142857,339.0 688.5714285714286,308.4 751.4285714285714,327.6 814.2857142857142,127.42500000000001 877.1428571428571,87.89999999999998 940.0,112.57499999999999" fill="none" stroke="#013369" stroke-width="4" />
<text x="950.0" y="112.57499999999999" font-family="Arial" font-size="14" font-weight="bold" fill="#013369">NFC (Avg)</text>
</svg>