<svg xmlns="http://www.w3.org/2000/svg" width="1000" height="600" style="background-color:white;">
<text x="500.0" y="30" font-family="Inter, Roboto, Helvetica, Arial, sans-serif" font-size="24" text-anchor="middle" font-weight="bold" fill="#333">The Liquidity Drag: Dead Cap % (2015-2024)</text>
<text x="500.0" y="50" font-family="Inter, Roboto, Helvetica, Arial, sans-serif" font-size="14" text-anchor="middle" fill="#666">Source: Cap Alpha Protocol (2025 Audit)</text>
<line x1="60" y1="540.0" x2="940" y2="540.0" stroke="#eee" stroke-width="1" />
<text x="50" y="545.0" font-family="Arial" font-size="12" text-anchor="end">0%</text>
<line x1="60" y1="444.0" x2="940" y2="444.0" stroke="#eee" stroke-width="1" />
<text x="50" y="449.0" font-family="Arial" font-size="12" text-anchor="end">10%</text>
<line x1="60" y1="348.0" x2="940" y2="348.0" stroke="#eee" stroke-width="1" />
<text x="50" y="353.0" font-family="Arial" font-size="12" text-anchor="end">20%</text>
<line x1="60" y1="252.0" x2="940" y2="252.0" stroke="#eee" stroke-width="1" />
<text x="50" y="257.0" font-family="Arial" font-size="12" text-anchor="end">30%</text>
<line x1="60" y1="156.0" x2="940" y2="156.0" stroke="#eee" stroke-width="1" />
<text x="50" y="161.0" font-family="Arial" font-size="12" text-anchor="end">40%</text>
<line x1="60" y1="60.0" x2="940" y2="60.0" stroke="#eee" stroke-width="1" />
<text x="50" y="65.0" font-family="Arial" font-size="12" text-anchor="end">50%</text>
<text x="60.0" y="560" font-family="Arial" font-size="12" text-anchor="middle">2015</text>
<text x="157.77777777777777" y="560" font-family="Arial" font-size="12" text-anchor="middle">2016</text>
<text x="255.55555555555554" y="560" font-family="Arial" font-size="12" text-anchor="middle">2017</text>
<text x="353.3333333333333" y="560" font-family="Arial" font-size="12" text-anchor="middle">2018</text>
<text x="451.1111111111111" y="560" font-family="Arial" font-size="12" text-anchor="middle">2019</text>
<text x="548.8888888888889" y="560" font-family="Arial" font-size="12" text-anchor="middle">2020</text>
<text x="646.6666666666666" y="560" font-family="Arial" font-size="12" text-anchor="middle">2021</text>
<text x="744.4444444444443" y="560" font-family="Arial" font-size="12" text-anchor="middle">2022</text>
<text x="842.2222222222222" y="560" font-family="Arial" font-size="12" text-anchor="middle">2023</text>
<text x="940.0" y="560" font-family="Arial" font-size="12" text-anchor="middle">2024</text>
<rect x="60" y="424.8" width="880" height="115.19999999999999" fill="#d1fae5" fill-opacity="0.6" />
<line x1="60" y1="424.8" x2="940" y2="424.8" stroke="#059669" stroke-width="1" stroke-dasharray="4" />
<text x="930" y="414.8" font-family="Inter, Roboto, Helvetica, Arial, sans-serif" font-size="12" fill="#065f46" font-weight="bold" text-anchor="end">Efficient Zone (Under 12%)</text>
<polyline points="60.0,455.04 157.77777777777777,455.52 255.55555555555554,497.376 353.3333333333333,316.70399999999995 451.1111111111111,285.504 548.8888888888889,459.456 646.6666666666666,461.08799999999997 744.4444444444443,418.848 842.2222222222222,232.89600000000002 940.0,420.096" fill="none" stroke="#ddd" stroke-width="1" />
<polyline points="60.0,381.696 157.77777777777777,377.568 255.55555555555554,491.13599999999997 353.3333333333333,489.312 451.1111111111111,442.56 548.8888888888889,395.03999999999996 646.6666666666666,383.03999999999996 744.4444444444443,142.176 842.2222222222222,429.408 940.0,482.496" fill="none" stroke="#ddd" stroke-width="1" />
<polyline points="60.0,422.688 157.77777777777777,441.216 255.55555555555554,447.264 353.3333333333333,426.24 451.1111111111111,416.544 548.8888888888889,420.384 646.6666666666666,393.88800000000003 744.4444444444443,373.344 842.2222222222222,372.672 940.0,352.70399999999995" fill="none" stroke="#ddd" stroke-width="1" />
<polyline points="60.0,376.79999999999995 157.77777777777777,442.464 255.55555555555554,407.13599999999997 353.3333333333333,457.728 451.1111111111111,386.976 548.8888888888889,427.392 646.6666666666666,436.608 744.4444444444443,414.624 842.2222222222222,471.072 940.0,451.872" fill="none" stroke="#ddd" stroke-width="1" />
<polyline points="60.0,445.344 157.77777777777777,421.728 255.55555555555554,360.288 353.3333333333333,163.96800000000002 451.1111111111111,446.976 548.8888888888889,484.224 646.6666666666666,489.88800000000003 744.4444444444443,422.688 842.2222222222222,497.28 940.0,258.624" fill="none" stroke="#ddd" stroke-width="1" />
<polyline points="60.0,438.336 157.77777777777777,449.08799999999997 255.55555555555554,473.664 353.3333333333333,474.432 451.1111111111111,463.68 548.8888888888889,285.6 646.6666666666666,254.976 744.4444444444443,290.976 842.2222222222222,283.584 940.0,271.104" fill="none" stroke="#ddd" stroke-width="1" />
<polyline points="60.0,343.104 157.77777777777777,457.152 255.55555555555554,464.256 353.3333333333333,457.632 451.1111111111111,484.128 548.8888888888889,459.84000000000003 646.6666666666666,406.272 744.4444444444443,102.52800000000002 842.2222222222222,384.96000000000004 940.0,425.472" fill="none" stroke="#ddd" stroke-width="1" />
<polyline points="60.0,507.648 157.77777777777777,515.616 255.55555555555554,515.328 353.3333333333333,491.424 451.1111111111111,468.76800000000003 548.8888888888889,445.248 646.6666666666666,444.96 744.4444444444443,467.808 842.2222222222222,520.224 940.0,491.808" fill="none" stroke="#ddd" stroke-width="1" />
<polyline points="60.0,491.52 157.77777777777777,280.512 255.55555555555554,256.70399999999995 353.3333333333333,403.20000000000005 451.1111111111111,394.368 548.8888888888889,454.08 646.6666666666666,402.624 744.4444444444443,354.81600000000003 842.2222222222222,438.432 940.0,375.93600000000004" fill="none" stroke="#ddd" stroke-width="1" />
<polyline points="60.0,406.08000000000004 157.77777777777777,519.648 255.55555555555554,379.87199999999996 353.3333333333333,360.384 451.1111111111111,485.568 548.8888888888889,407.904 646.6666666666666,413.568 744.4444444444443,394.08000000000004 842.2222222222222,451.584 940.0,421.536" fill="none" stroke="#ddd" stroke-width="1" />
<polyline points="60.0,397.632 157.77777777777777,381.88800000000003 255.55555555555554,474.91200000000003 353.3333333333333,405.216 451.1111111111111,457.728 548.8888888888889,401.18399999999997 646.6666666666666,212.35199999999998 744.4444444444443,383.52 842.2222222222222,402.144 940.0,379.2" fill="none" stroke="#ddd" stroke-width="1" />
<polyline points="60.0,503.23199999999997 157.77777777777777,511.008 255.55555555555554,471.264 353.3333333333333,458.20799999999997 451.1111111111111,447.552 548.8888888888889,498.048 646.6666666666666,483.168 744.4444444444443,401.08799999999997 842.2222222222222,243.93599999999998 940.0,293.568" fill="none" stroke="#ddd" stroke-width="1" />
<polyline points="60.0,422.496 157.77777777777777,485.376 255.55555555555554,457.056 353.3333333333333,453.6 451.1111111111111,407.328 548.8888888888889,433.056 646.6666666666666,290.208 744.4444444444443,184.60799999999995 842.2222222222222,336.384 940.0,382.368" fill="none" stroke="#ddd" stroke-width="1" />
<polyline points="60.0,444.48 157.77777777777777,431.808 255.55555555555554,370.56 353.3333333333333,454.752 451.1111111111111,420.096 548.8888888888889,468.0 646.6666666666666,505.44 744.4444444444443,465.12 842.2222222222222,319.488 940.0,480.096" fill="none" stroke="#ddd" stroke-width="1" />
<polyline points="60.0,472.416 157.77777777777777,507.36 255.55555555555554,476.736 353.3333333333333,439.68 451.1111111111111,355.104 548.8888888888889,280.128 646.6666666666666,414.336 744.4444444444443,395.328 842.2222222222222,492.96 940.0,335.712" fill="none" stroke="#ddd" stroke-width="1" />
<polyline points="60.0,540.0 157.77777777777777,540.0 255.55555555555554,425.376 353.3333333333333,456.76800000000003 451.1111111111111,492.96 548.8888888888889,469.824 646.6666666666666,507.456 744.4444444444443,489.88800000000003 842.2222222222222,419.712 940.0,314.976" fill="none" stroke="#ddd" stroke-width="1" />
<polyline points="60.0,540.0 157.77777777777777,402.91200000000003 255.55555555555554,478.752 353.3333333333333,450.24 451.1111111111111,467.808 548.8888888888889,352.224 646.6666666666666,282.432 744.4444444444443,412.224 842.2222222222222,189.12 940.0,404.832" fill="none" stroke="#ddd" stroke-width="1" />
<polyline points="60.0,540.0 157.77777777777777,540.0 255.55555555555554,540.0 353.3333333333333,540.0 451.1111111111111,540.0 548.8888888888889,489.696 646.6666666666666,355.392 744.4444444444443,301.728 842.2222222222222,291.456 940.0,326.4" fill="none" stroke="#ddd" stroke-width="1" />
<polyline points="60.0,337.536 157.77777777777777,428.928 255.55555555555554,428.064 353.3333333333333,426.72 451.1111111111111,174.52800000000002 548.8888888888889,355.29600000000005 646.6666666666666,419.808 744.4444444444443,454.944 842.2222222222222,452.736 940.0,306.144" fill="none" stroke="#ddd" stroke-width="1" />
<polyline points="60.0,480.288 157.77777777777777,493.92 255.55555555555554,465.408 353.3333333333333,505.248 451.1111111111111,497.856 548.8888888888889,357.984 646.6666666666666,409.824 744.4444444444443,410.88 842.2222222222222,331.58399999999995 940.0,272.448" fill="none" stroke="#ddd" stroke-width="1" />
<polyline points="60.0,306.336 157.77777777777777,263.52 255.55555555555554,387.93600000000004 353.3333333333333,415.776 451.1111111111111,427.392 548.8888888888889,428.544 646.6666666666666,285.6 744.4444444444443,336.096 842.2222222222222,386.88 940.0,306.336" fill="none" stroke="#ddd" stroke-width="1" />
<polyline points="60.0,423.264 157.77777777777777,445.44 255.55555555555554,482.208 353.3333333333333,293.568 451.1111111111111,267.93600000000004 548.8888888888889,433.632 646.6666666666666,439.968 744.4444444444443,286.65599999999995 842.2222222222222,297.504 940.0,233.952" fill="none" stroke="#ddd" stroke-width="1" />
<polyline points="60.0,488.15999999999997 157.77777777777777,437.568 255.55555555555554,402.432 353.3333333333333,398.88 451.1111111111111,399.264 548.8888888888889,258.144 646.6666666666666,372.672 744.4444444444443,474.72 842.2222222222222,414.72 940.0,308.64" fill="none" stroke="#ddd" stroke-width="1" />
<polyline points="60.0,423.072 157.77777777777777,486.24 255.55555555555554,514.368 353.3333333333333,384.384 451.1111111111111,408.86400000000003 548.8888888888889,540.0 646.6666666666666,540.0 744.4444444444443,540.0 842.2222222222222,540.0 940.0,540.0" fill="none" stroke="#ddd" stroke-width="1" />
<polyline points="60.0,400.704 157.77777777777777,465.504 255.55555555555554,470.304 353.3333333333333,491.52 451.1111111111111,379.77599999999995 548.8888888888889,468.288 646.6666666666666,374.20799999999997 744.4444444444443,373.536 842.2222222222222,450.24 940.0,419.904" fill="none" stroke="#ddd" stroke-width="1" />
<polyline points="60.0,424.128 157.77777777777777,457.44 255.55555555555554,540.0 353.3333333333333,540.0 451.1111111111111,540.0 548.8888888888889,540.0 646.6666666666666,540.0 744.4444444444443,540.0 842.2222222222222,540.0 940.0,540.0" fill="none" stroke="#ddd" stroke-width="1" />
<polyline points="60.0,335.712 157.77777777777777,453.12 255.55555555555554,279.552 353.3333333333333,408.0 451.1111111111111,428.64 548.8888888888889,460.992 646.6666666666666,424.32 744.4444444444443,436.32 842.2222222222222,379.68 940.0,421.728" fill="none" stroke="#ddd" stroke-width="1" />
<polyline points="60.0,461.664 157.77777777777777,540.0 255.55555555555554,540.0 353.3333333333333,540.0 451.1111111111111,540.0 548.8888888888889,540.0 646.6666666666666,540.0 744.4444444444443,540.0 842.2222222222222,540.0 940.0,540.0" fill="none" stroke="#ddd" stroke-width="1" />
<polyline points="60.0,358.08 157.77777777777777,501.12 255.55555555555554,494.88 353.3333333333333,483.552 451.1111111111111,483.36 548.8888888888889,502.464 646.6666666666666,480.672 744.4444444444443,419.03999999999996 842.2222222222222,189.88800000000003 940.0,294.624" fill="none" stroke="#ddd" stroke-width="1" />
<polyline points="60.0,406.656 157.77777777777777,421.91999999999996 255.55555555555554,492.0 353.3333333333333,470.496 451.1111111111111,472.512 548.8888888888889,397.632 646.6666666666666,379.488 744.4444444444443,426.432 842.2222222222222,284.928 940.0,277.344" fill="none" stroke="#ddd" stroke-width="1" />
<polyline points="60.0,422.688 157.77777777777777,441.216 255.55555555555554,447.264 353.3333333333333,426.24 451.1111111111111,416.544 548.8888888888889,420.384 646.6666666666666,393.88800000000003 744.4444444444443,373.344 842.2222222222222,372.672 940.0,352.70399999999995" fill="none" stroke="#ddd" stroke-width="1" />
<polyline points="60.0,450.144 157.77777777777777,430.08000000000004 255.55555555555554,470.592 353.3333333333333,458.784 451.1111111111111,469.248 548.8888888888889,384.76800000000003 646.6666666666666,429.6 744.4444444444443,436.704 842.2222222222222,331.392 940.0,351.552" fill="none" stroke="#ddd" stroke-width="1" />
<circle cx="60.0" cy="499.296" r="4" fill="#FB4F14" />
<circle cx="157.77777777777777" cy="441.312" r="4" fill="#FB4F14" />
<circle cx="255.55555555555554" cy="506.496" r="4" fill="#FB4F14" />
<circle cx="353.3333333333333" cy="397.34400000000005" r="4" fill="#FB4F14" />
<circle cx="451.1111111111111" cy="371.904" r="4" fill="#FB4F14" />
<circle cx="548.8888888888889" cy="415.488" r="4" fill="#FB4F14" />
<circle cx="646.6666666666666" cy="350.688" r="4" fill="#FB4F14" />
<circle cx="744.4444444444443" cy="382.752" r="4" fill="#FB4F14" />
<circle cx="842.2222222222222" cy="402.048" r="4" fill="#FB4F14" />
<circle cx="940.0" cy="200.832" r="4" fill="#FB4F14" />
<text x="945.0" y="200.832" font-family="Arial" font-size="12" font-weight="bold" fill="#FB4F14">DEN 35.3%</text>
<polyline points="60.0,499.296 157.77777777777777,441.312 255.55555555555554,506.496 353.3333333333333,397.34400000000005 451.1111111111111,371.904 548.8888888888889,415.488 646.6666666666666,350.688 744.4444444444443,382.752 842.2222222222222,402.048 940.0,200.832" fill="none" stroke="#FB4F14" stroke-width="3" />
<circle cx="60.0" cy="412.128" r="4" fill="#005C5C" />
<circle cx="157.77777777777777" cy="449.568" r="4" fill="#005C5C" />
<circle cx="255.55555555555554" cy="497.76" r="4" fill="#005C5C" />
<circle cx="353.3333333333333" cy="415.392" r="4" fill="#005C5C" />
<circle cx="451.1111111111111" cy="403.20000000000005" r="4" fill="#005C5C" />
<circle cx="548.8888888888889" cy="461.376" r="4" fill="#005C5C" />
<circle cx="646.6666666666666" cy="462.624" r="4" fill="#005C5C" />
<circle cx="744.4444444444443" cy="284.736" r="4" fill="#005C5C" />
<circle cx="842.2222222222222" cy="435.552" r="4" fill="#005C5C" />
<circle cx="940.0" cy="318.81600000000003" r="4" fill="#005C5C" />
<text x="945.0" y="318.81600000000003" font-family="Arial" font-size="12" font-weight="bold" fill="#005C5C">SEA 23.0%</text>
<polyline points="60.0,412.128 157.77777777777777,449.568 255.55555555555554,497.76 353.3333333333333,415.392 451.1111111111111,403.20000000000005 548.8888888888889,461.376 646.6666666666666,462.624 744.4444444444443,284.736 842.2222222222222,435.552 940.0,318.81600000000003" fill="none" stroke="#005C5C" stroke-width="3" />
<circle cx="60.0" cy="407.616" r="4" fill="#002244" />
<circle cx="157.77777777777777" cy="426.048" r="4" fill="#002244" />
<circle cx="255.55555555555554" cy="497.664" r="4" fill="#002244" />
<circle cx="353.3333333333333" cy="480.0" r="4" fill="#002244" />
<circle cx="451.1111111111111" cy="411.744" r="4" fill="#002244" />
<circle cx="548.8888888888889" cy="385.91999999999996" r="4" fill="#002244" />
<circle cx="646.6666666666666" cy="379.2" r="4" fill="#002244" />
<circle cx="744.4444444444443" cy="454.176" r="4" fill="#002244" />
<circle cx="842.2222222222222" cy="404.832" r="4" fill="#002244" />
<circle cx="940.0" cy="285.024" r="4" fill="#002244" />
<text x="945.0" y="285.024" font-family="Arial" font-size="12" font-weight="bold" fill="#002244">NE 26.6%</text>
<polyline points="60.0,407.616 157.77777777777777,426.048 255.55555555555554,497.664 353.3333333333333,480.0 451.1111111111111,411.744 548.8888888888889,385.91999999999996 646.6666666666666,379.2 744.4444444444443,454.176 842.2222222222222,404.832 940.0,285.024" fill="none" stroke="#002244" stroke-width="3" />
<circle cx="60.0" cy="416.15999999999997" r="4" fill="#004C54" />
<circle cx="157.77777777777777" cy="387.264" r="4" fill="#004C54" />
<circle cx="255.55555555555554" cy="431.04" r="4" fill="#004C54" />
<circle cx="353.3333333333333" cy="456.384" r="4" fill="#004C54" />
<circle cx="451.1111111111111" cy="417.408" r="4" fill="#004C54" />
<circle cx="548.8888888888889" cy="426.432" r="4" fill="#004C54" />
<circle cx="646.6666666666666" cy="216.38400000000001" r="4" fill="#004C54" />
<circle cx="744.4444444444443" cy="257.856" r="4" fill="#004C54" />
<circle cx="842.2222222222222" cy="275.904" r="4" fill="#004C54" />
<circle cx="940.0" cy="296.448" r="4" fill="#004C54" />
<text x="945.0" y="296.448" font-family="Arial" font-size="12" font-weight="bold" fill="#004C54">PHI 25.4%</text>
<polyline points="60.0,416.15999999999997 157.77777777777777,387.264 255.55555555555554,431.04 353.3333333333333,456.384 451.1111111111111,417.408 548.8888888888889,426.432 646.6666666666666,216.38400000000001 744.4444444444443,257.856 842.2222222222222,275.904 940.0,296.448" fill="none" stroke="#004C54" stroke-width="3" />
<circle cx="60.0" cy="393.79200000000003" r="4" fill="#E31837" />
<circle cx="157.77777777777777" cy="450.71999999999997" r="4" fill="#E31837" />
<circle cx="255.55555555555554" cy="448.128" r="4" fill="#E31837" />
<circle cx="353.3333333333333" cy="415.96799999999996" r="4" fill="#E31837" />
<circle cx="451.1111111111111" cy="419.23199999999997" r="4" fill="#E31837" />
<circle cx="548.8888888888889" cy="459.84000000000003" r="4" fill="#E31837" />
<circle cx="646.6666666666666" cy="447.744" r="4" fill="#E31837" />
<circle cx="744.4444444444443" cy="463.296" r="4" fill="#E31837" />
<circle cx="842.2222222222222" cy="485.76" r="4" fill="#E31837" />
<circle cx="940.0" cy="474.624" r="4" fill="#E31837" />
<text x="945.0" y="474.624" font-family="Arial" font-size="12" font-weight="bold" fill="#E31837">KC 6.8%</text>
<polyline points="60.0,393.79200000000003 157.77777777777777,450.71999999999997 255.55555555555554,448.128 353.3333333333333,415.96799999999996 451.1111111111111,419.23199999999997 548.8888888888889,459.84000000000003 646.6666666666666,447.744 744.4444444444443,463.296 842.2222222222222,485.76 940.0,474.624" fill="none" stroke="#E31837" stroke-width="3" />
</svg>